<svg width="689" height="499" viewBox="0 0 414 300" fill="none" xmlns="http://www.w3.org/2000/svg">
<path d="M237.132 40.8357H184.833L161.22 0L102.37 0L78.7518 40.8357L26.0831 40.8357L0 85.9223L26.0831 131.03H84.9277L108.546 90.1946H154.675L178.304 131.03L237.143 131.03L263.232 85.9223L237.132 40.8357ZM78.7572 120.32H32.2483L12.3571 85.9062L32.2643 51.5031L78.7625 51.5031L98.6697 85.9062L78.7572 120.32ZM108.535 79.5058V79.4951L88.6386 45.0866L108.535 10.6888L155.044 10.6888L174.94 45.0919L155.044 79.5058H108.535ZM230.957 120.32H184.464L164.556 85.9062L184.464 51.5031H230.957L250.869 85.9062L230.957 120.32ZM43.2846 60.2349L25.3719 91.9698L20.7146 89.3391L38.6327 57.5988L43.2846 60.2349ZM36.1195 107.369H74.8859V112.716H36.1195V107.369ZM243.073 88.275L238.405 90.879L220.674 59.1708L225.342 56.5614L243.073 88.275ZM190.827 57.6095L195.495 60.2188L177.774 91.9377L173.112 89.3391L190.827 57.6095Z" fill="black"/>
<path d="M237.132 125.53H184.833L161.22 84.6946L102.37 84.6946L78.7518 125.53H26.0831L0 170.617L26.0831 215.725H84.9277L108.546 174.889H154.675L178.304 215.725L237.143 215.725L263.232 170.617L237.132 125.53ZM78.7572 205.015H32.2483L12.3571 170.601L32.2643 136.198H78.7625L98.6697 170.601L78.7572 205.015ZM108.535 164.2V164.19L88.6386 129.781L108.535 95.3834L155.044 95.3834L174.94 129.787L155.044 164.2H108.535ZM230.957 205.015H184.464L164.556 170.601L184.464 136.198H230.957L250.869 170.601L230.957 205.015ZM43.2846 144.929L25.3719 176.664L20.7146 174.034L38.6327 142.293L43.2846 144.929ZM36.1195 192.064H74.8859V197.411H36.1195V192.064ZM243.073 172.97L238.405 175.574L220.674 143.865L225.342 141.256L243.073 172.97ZM190.827 142.304L195.495 144.913L177.774 176.632L173.112 174.034L190.827 142.304Z" fill="black"/>
<path d="M387.901 125.53H335.601L311.988 84.6946L253.138 84.6946L229.52 125.53H176.852L150.769 170.617L176.852 215.725H235.696L259.314 174.889H305.444L329.072 215.725L387.912 215.725L414 170.617L387.901 125.53ZM229.526 205.015H183.017L163.126 170.601L183.033 136.198H229.531L249.438 170.601L229.526 205.015ZM259.304 164.2V164.19L239.407 129.781L259.304 95.3834L305.813 95.3834L325.709 129.787L305.813 164.2H259.304ZM381.725 205.015H335.232L315.325 170.601L335.232 136.198H381.725L401.638 170.601L381.725 205.015ZM194.053 144.929L176.14 176.664L171.483 174.034L189.401 142.293L194.053 144.929ZM186.888 192.064H225.654V197.411H186.888V192.064ZM393.842 172.97L389.174 175.574L371.443 143.865L376.111 141.256L393.842 172.97ZM341.595 142.304L346.263 144.913L328.543 176.632L323.88 174.034L341.595 142.304Z" fill="black"/>
<path d="M387.901 204.819H335.601L311.988 163.983H253.138L229.52 204.819H176.852L150.769 249.905L176.852 295.013H235.696L259.314 254.178H305.444L329.072 295.013H387.912L414 249.905L387.901 204.819ZM229.526 284.303H183.017L163.126 249.889L183.033 215.486H229.531L249.438 249.889L229.526 284.303ZM259.304 243.489V243.478L239.407 209.07L259.304 174.672H305.813L325.709 209.075L305.813 243.489H259.304ZM381.725 284.303H335.232L315.325 249.889L335.232 215.486H381.725L401.638 249.889L381.725 284.303ZM194.053 224.218L176.14 255.953L171.483 253.322L189.401 221.582L194.053 224.218ZM186.888 271.353H225.654V276.7H186.888V271.353ZM393.842 252.258L389.174 254.862L371.443 223.154L376.111 220.545L393.842 252.258ZM341.595 221.593L346.263 224.202L328.543 255.921L323.88 253.322L341.595 221.593Z" fill="black"/>
<g clip-path="url(#clip0)">
<path d="M26.256 125.946L6.44946 85.8958L26.256 45.846H82.3745L102.181 85.8958L82.3745 125.946H26.256Z" fill="#E4A22B"/>
<path d="M82.3744 45.846H77.4226L97.2291 85.8958L77.4226 125.946H82.3744L102.181 85.8958L82.3744 45.846Z" fill="#B67F1C"/>
<path d="M26.256 45.846H31.2075L11.4009 85.8958L31.2075 125.946H26.256L6.44946 85.8958L26.256 45.846Z" fill="white"/>
<path d="M82.3744 127.542H26.2559C25.6237 127.542 25.0471 127.19 24.7737 126.636L4.96715 86.5864C4.75143 86.1499 4.75143 85.642 4.96715 85.2055L24.7737 45.1557C25.0471 44.6022 25.6237 44.2503 26.2559 44.2503H82.3744C83.0066 44.2503 83.5829 44.6022 83.8566 45.1554L103.663 85.2052C103.879 85.6417 103.879 86.1496 103.663 86.5861L83.8566 126.636C83.5829 127.19 83.0066 127.542 82.3744 127.542ZM27.2903 124.35H81.3398L100.357 85.8961L81.3398 47.4418H27.2903L8.27303 85.8958L27.2903 124.35Z" fill="black"/>
</g>
<g clip-path="url(#clip1)">
<path d="M182.45 128.942L162.625 88.855L182.45 48.7684H238.62L258.445 88.855L238.62 128.942H182.45Z" fill="#E4A22B"/>
<path d="M238.62 48.7684H233.664L253.489 88.855L233.664 128.942H238.62L258.445 88.855L238.62 48.7684Z" fill="#B67F1C"/>
<path d="M182.45 48.7684H187.406L167.581 88.855L187.406 128.942H182.45L162.625 88.855L182.45 48.7684Z" fill="white"/>
<path d="M238.62 130.539H182.45C181.817 130.539 181.24 130.187 180.966 129.633L161.142 89.5462C160.926 89.1093 160.926 88.601 161.142 88.1641L180.966 48.0775C181.24 47.5235 181.817 47.1712 182.45 47.1712H238.62C239.253 47.1712 239.83 47.5235 240.104 48.0772L259.928 88.1638C260.144 88.6007 260.144 89.109 259.928 89.5459L240.104 129.633C239.83 130.187 239.253 130.539 238.62 130.539ZM183.485 127.345H237.584L256.619 88.8553L237.584 50.3656H183.485L164.451 88.855L183.485 127.345Z" fill="black"/>
</g>
<g clip-path="url(#clip2)">
<path d="M178.027 291.581L157.849 250.78L178.027 209.979H235.198L255.376 250.78L235.198 291.581H178.027Z" fill="#E4A22B"/>
<path d="M235.198 209.979H230.153L250.331 250.78L230.153 291.581H235.198L255.376 250.78L235.198 209.979Z" fill="#B67F1C"/>
<path d="M178.027 209.979H183.072L162.894 250.78L183.072 291.581H178.027L157.849 250.78L178.027 209.979Z" fill="white"/>
<path d="M235.198 293.207H178.027C177.383 293.207 176.796 292.848 176.517 292.285L156.339 251.484C156.119 251.039 156.119 250.521 156.339 250.077L176.517 209.276C176.796 208.712 177.383 208.354 178.027 208.354H235.198C235.842 208.354 236.429 208.712 236.708 209.276L256.886 250.077C257.106 250.521 257.106 251.039 256.886 251.483L236.708 292.284C236.429 292.848 235.842 293.207 235.198 293.207ZM179.081 289.955H234.144L253.518 250.78L234.144 211.605H179.081L159.707 250.78L179.081 289.955Z" fill="black"/>
</g>
<g clip-path="url(#clip3)">
<path d="M254.4 248.63L234.696 208.786L254.4 168.942H310.23L329.935 208.786L310.23 248.63H254.4Z" fill="#E4A22B"/>
<path d="M310.23 168.942H305.304L325.009 208.786L305.304 248.63H310.23L329.935 208.786L310.23 168.942Z" fill="#B67F1C"/>
<path d="M254.4 168.942H259.326L239.622 208.786L259.326 248.63H254.4L234.696 208.786L254.4 168.942Z" fill="white"/>
<path d="M310.23 250.218H254.401C253.772 250.218 253.198 249.867 252.926 249.317L233.221 209.473C233.007 209.039 233.007 208.534 233.221 208.099L252.926 168.256C253.198 167.705 253.772 167.355 254.401 167.355H310.23C310.859 167.355 311.432 167.705 311.705 168.255L331.409 208.099C331.624 208.533 331.624 209.039 331.409 209.473L311.705 249.316C311.432 249.867 310.859 250.218 310.23 250.218ZM255.43 247.042H309.201L328.12 208.786L309.201 170.53H255.43L236.51 208.786L255.43 247.042Z" fill="black"/>
</g>
<g clip-path="url(#clip4)">
<path d="M104.075 166.892L84.5162 127.342L104.075 87.7929H159.492L179.051 127.342L159.492 166.892H104.075Z" fill="#E4A22B"/>
<path d="M159.492 87.7929H154.602L174.161 127.342L154.602 166.892H159.492L179.051 127.342L159.492 87.7929Z" fill="#B67F1C"/>
<path d="M104.075 87.7929H108.965L89.4058 127.342L108.965 166.892H104.075L84.5162 127.342L104.075 87.7929Z" fill="white"/>
<path d="M159.492 168.467H104.075C103.451 168.467 102.881 168.12 102.611 167.574L83.0523 128.024C82.8393 127.593 82.8393 127.091 83.0523 126.66L102.611 87.1113C102.881 86.5647 103.451 86.2171 104.075 86.2171H159.492C160.116 86.2171 160.685 86.5647 160.956 87.111L180.515 126.66C180.728 127.091 180.728 127.593 180.515 128.024L160.956 167.573C160.685 168.12 160.116 168.467 159.492 168.467ZM105.096 165.316H158.47L177.25 127.342L158.47 89.3688H105.096L86.3169 127.342L105.096 165.316Z" fill="black"/>
</g>
<defs>
<clipPath id="clip0">
<rect width="99.0197" height="96.1074" fill="white" transform="translate(4.8053 37.8423)"/>
</clipPath>
<clipPath id="clip1">
<rect width="99.1107" height="96.1957" fill="white" transform="translate(160.98 40.7573)"/>
</clipPath>
<clipPath id="clip2">
<rect width="100.876" height="97.9094" fill="white" transform="translate(156.174 201.826)"/>
</clipPath>
<clipPath id="clip3">
<rect width="98.5101" height="95.6127" fill="white" transform="translate(233.06 160.98)"/>
</clipPath>
<clipPath id="clip4">
<rect width="97.782" height="94.906" fill="white" transform="translate(82.8925 79.8893)"/>
</clipPath>
</defs>
</svg>
