<svg width="117" height="34" viewBox="0 0 117 34" fill="none" xmlns="http://www.w3.org/2000/svg">
<path d="M55.74 16.8C56.5533 16.9733 57.2067 17.38 57.7 18.02C58.1933 18.6467 58.44 19.3667 58.44 20.18C58.44 21.3533 58.0267 22.2867 57.2 22.98C56.3867 23.66 55.2467 24 53.78 24H47.24V9.96H53.56C54.9867 9.96 56.1 10.2867 56.9 10.94C57.7133 11.5933 58.12 12.48 58.12 13.6C58.12 14.4267 57.9 15.1133 57.46 15.66C57.0333 16.2067 56.46 16.5867 55.74 16.8ZM50.66 15.64H52.9C53.46 15.64 53.8867 15.52 54.18 15.28C54.4867 15.0267 54.64 14.66 54.64 14.18C54.64 13.7 54.4867 13.3333 54.18 13.08C53.8867 12.8267 53.46 12.7 52.9 12.7H50.66V15.64ZM53.18 21.24C53.7533 21.24 54.1933 21.1133 54.5 20.86C54.82 20.5933 54.98 20.2133 54.98 19.72C54.98 19.2267 54.8133 18.84 54.48 18.56C54.16 18.28 53.7133 18.14 53.14 18.14H50.66V21.24H53.18ZM62.1436 11.68C61.5436 11.68 61.0503 11.5067 60.6636 11.16C60.2903 10.8 60.1036 10.36 60.1036 9.84C60.1036 9.30667 60.2903 8.86667 60.6636 8.52C61.0503 8.16 61.5436 7.98 62.1436 7.98C62.7303 7.98 63.2103 8.16 63.5836 8.52C63.9703 8.86667 64.1636 9.30667 64.1636 9.84C64.1636 10.36 63.9703 10.8 63.5836 11.16C63.2103 11.5067 62.7303 11.68 62.1436 11.68ZM63.8436 12.84V24H60.4236V12.84H63.8436ZM72.542 21.1V24H70.802C69.562 24 68.5954 23.7 67.902 23.1C67.2087 22.4867 66.862 21.4933 66.862 20.12V15.68H65.502V12.84H66.862V10.12H70.282V12.84H72.522V15.68H70.282V20.16C70.282 20.4933 70.362 20.7333 70.522 20.88C70.682 21.0267 70.9487 21.1 71.322 21.1H72.542ZM73.767 18.42C73.767 17.26 74.0004 16.2467 74.467 15.38C74.947 14.5133 75.607 13.8467 76.447 13.38C77.3004 12.9133 78.2737 12.68 79.367 12.68C80.767 12.68 81.9337 13.0467 82.867 13.78C83.8137 14.5133 84.4337 15.5467 84.727 16.88H81.087C80.7804 16.0267 80.187 15.6 79.307 15.6C78.6804 15.6 78.1804 15.8467 77.807 16.34C77.4337 16.82 77.247 17.5133 77.247 18.42C77.247 19.3267 77.4337 20.0267 77.807 20.52C78.1804 21 78.6804 21.24 79.307 21.24C80.187 21.24 80.7804 20.8133 81.087 19.96H84.727C84.4337 21.2667 83.8137 22.2933 82.867 23.04C81.9204 23.7867 80.7537 24.16 79.367 24.16C78.2737 24.16 77.3004 23.9267 76.447 23.46C75.607 22.9933 74.947 22.3267 74.467 21.46C74.0004 20.5933 73.767 19.58 73.767 18.42ZM91.6364 24.16C90.5431 24.16 89.5564 23.9267 88.6764 23.46C87.8097 22.9933 87.1231 22.3267 86.6164 21.46C86.1231 20.5933 85.8764 19.58 85.8764 18.42C85.8764 17.2733 86.1297 16.2667 86.6364 15.4C87.1431 14.52 87.8364 13.8467 88.7164 13.38C89.5964 12.9133 90.5831 12.68 91.6764 12.68C92.7697 12.68 93.7564 12.9133 94.6364 13.38C95.5164 13.8467 96.2097 14.52 96.7164 15.4C97.2231 16.2667 97.4764 17.2733 97.4764 18.42C97.4764 19.5667 97.2164 20.58 96.6964 21.46C96.1897 22.3267 95.4897 22.9933 94.5964 23.46C93.7164 23.9267 92.7297 24.16 91.6364 24.16ZM91.6364 21.2C92.2897 21.2 92.8431 20.96 93.2964 20.48C93.7631 20 93.9964 19.3133 93.9964 18.42C93.9964 17.5267 93.7697 16.84 93.3164 16.36C92.8764 15.88 92.3297 15.64 91.6764 15.64C91.0097 15.64 90.4564 15.88 90.0164 16.36C89.5764 16.8267 89.3564 17.5133 89.3564 18.42C89.3564 19.3133 89.5697 20 89.9964 20.48C90.4364 20.96 90.9831 21.2 91.6364 21.2ZM101.011 11.68C100.411 11.68 99.9174 11.5067 99.5308 11.16C99.1574 10.8 98.9708 10.36 98.9708 9.84C98.9708 9.30667 99.1574 8.86667 99.5308 8.52C99.9174 8.16 100.411 7.98 101.011 7.98C101.597 7.98 102.077 8.16 102.451 8.52C102.837 8.86667 103.031 9.30667 103.031 9.84C103.031 10.36 102.837 10.8 102.451 11.16C102.077 11.5067 101.597 11.68 101.011 11.68ZM102.711 12.84V24H99.2908V12.84H102.711ZM111.989 12.72C113.296 12.72 114.336 13.1467 115.109 14C115.896 14.84 116.289 16 116.289 17.48V24H112.889V17.94C112.889 17.1933 112.696 16.6133 112.309 16.2C111.923 15.7867 111.403 15.58 110.749 15.58C110.096 15.58 109.576 15.7867 109.189 16.2C108.803 16.6133 108.609 17.1933 108.609 17.94V24H105.189V12.84H108.609V14.32C108.956 13.8267 109.423 13.44 110.009 13.16C110.596 12.8667 111.256 12.72 111.989 12.72Z" fill="black"/>
<g clip-path="url(#clip0)">
<path d="M17.013 -8.54001e-05C7.62359 -0.00798774 0.00778643 7.59732 -0.000115918 16.9868C-0.00801826 26.3762 7.59729 33.992 16.9867 33.9999C26.3749 33.992 33.9854 26.3881 33.9999 16.9999C33.9999 7.61572 26.3972 0.00781694 17.013 -8.54001e-05ZM16.9867 31.171C9.16043 31.171 2.81571 24.8262 2.81571 16.9999C2.81571 9.17361 9.16043 2.82889 16.9867 2.82889C24.8104 2.83679 31.1499 9.17626 31.1578 16.9999C31.1578 24.8262 24.813 31.171 16.9867 31.171Z" fill="#E4A22B"/>
<path d="M21.579 16.1711C22.7158 15.5302 23.3303 14.2474 23.1185 12.9605C22.8553 10.9737 20.4869 10.2236 18.6184 10.0658V7.07898H16.7763V10.0395H15.5395V7.07898H13.6974V10.0395H9.98682V11.9474H11.3684C11.9868 11.9474 12.2895 12.1316 12.2895 12.6316V20.829C12.2895 21.5132 11.9473 21.7237 11.5789 21.7237H10.171V23.6711H13.75V26.6974H15.6052V23.6711H16.8421V26.6974H18.6447V23.6711H19.0394C22.8289 23.6711 24.0921 21.8159 24.0921 19.2896C24.0618 17.8 23.0289 16.5184 21.579 16.1711ZM15.5394 12.0658H16.8552C17.7763 12.0658 19.5921 12.2237 19.5921 13.7237C19.6552 14.7027 18.946 15.5606 17.9736 15.6842H15.5394V12.0658ZM17.5789 21.5395V21.5263H15.5394V17.5789H17.9079C18.4605 17.5789 20.5394 17.7631 20.5394 19.2368C20.5394 20.7105 19.5526 21.5395 17.5789 21.5395Z" fill="#E4A22B"/>
</g>
<defs>
<clipPath id="clip0">
<rect width="34" height="34" fill="white"/>
</clipPath>
</defs>
</svg>
