<svg width="22" height="11" viewBox="0 0 22 11" fill="none" xmlns="http://www.w3.org/2000/svg">
<path d="M21.4136 4.82311C21.4133 4.82285 21.4131 4.82256 21.4128 4.82231L17.0259 0.456575C16.6973 0.129523 16.1657 0.13074 15.8386 0.45943C15.5115 0.788077 15.5128 1.31965 15.8414 1.64674L18.7868 4.57783H1.00656C0.542865 4.57783 0.166992 4.9537 0.166992 5.41739C0.166992 5.88108 0.542865 6.25696 1.00656 6.25696H18.7867L15.8414 9.18804C15.5128 9.51514 15.5115 10.0467 15.8386 10.3754C16.1658 10.7041 16.6974 10.7052 17.026 10.3782L21.4129 6.01247C21.4131 6.01222 21.4133 6.01193 21.4136 6.01168C21.7424 5.68349 21.7414 5.1502 21.4136 4.82311Z" fill="#2777C0"/>
</svg>
